<svg xmlns="http://www.w3.org/2000/svg" xmlns:xlink="http://www.w3.org/1999/xlink" width="512" zoomAndPan="magnify" viewBox="0 0 384 383.999986" height="512" preserveAspectRatio="xMidYMid meet" version="1.0"><defs><clipPath id="e8c741b1ff"><path d="M 160.375 209.3125 L 238.140625 209.3125 L 238.140625 266.085938 L 160.375 266.085938 Z M 160.375 209.3125 " clip-rule="nonzero"/></clipPath><clipPath id="7d6a1d1432"><path d="M 393.261719 183.066406 C 393.261719 293.996094 303.222656 383.921875 192.152344 383.921875 C 81.082031 383.921875 -8.960938 293.996094 -8.960938 183.066406 C -8.960938 72.136719 81.082031 -17.789062 192.152344 -17.789062 C 303.222656 -17.789062 393.261719 72.136719 393.261719 183.066406 Z M 393.261719 183.066406 " clip-rule="nonzero"/></clipPath><clipPath id="20162b9a4d"><path d="M 137.449219 161.507812 L 157.558594 161.507812 L 157.558594 183.46875 L 137.449219 183.46875 Z M 137.449219 161.507812 " clip-rule="nonzero"/></clipPath><clipPath id="483e8bba8f"><path d="M 393.261719 183.066406 C 393.261719 293.996094 303.222656 383.921875 192.152344 383.921875 C 81.082031 383.921875 -8.960938 293.996094 -8.960938 183.066406 C -8.960938 72.136719 81.082031 -17.789062 192.152344 -17.789062 C 303.222656 -17.789062 393.261719 72.136719 393.261719 183.066406 Z M 393.261719 183.066406 " clip-rule="nonzero"/></clipPath><clipPath id="0ca478fbd5"><path d="M 139.328125 164.855469 L 156.355469 164.855469 L 156.355469 183.46875 L 139.328125 183.46875 Z M 139.328125 164.855469 " clip-rule="nonzero"/></clipPath><clipPath id="7ad737e941"><path d="M 393.261719 183.066406 C 393.261719 293.996094 303.222656 383.921875 192.152344 383.921875 C 81.082031 383.921875 -8.960938 293.996094 -8.960938 183.066406 C -8.960938 72.136719 81.082031 -17.789062 192.152344 -17.789062 C 303.222656 -17.789062 393.261719 72.136719 393.261719 183.066406 Z M 393.261719 183.066406 " clip-rule="nonzero"/></clipPath><clipPath id="8191072cf7"><path d="M 229.691406 161.507812 L 249.667969 161.507812 L 249.667969 183.46875 L 229.691406 183.46875 Z M 229.691406 161.507812 " clip-rule="nonzero"/></clipPath><clipPath id="ffa91d2bbd"><path d="M 393.261719 183.066406 C 393.261719 293.996094 303.222656 383.921875 192.152344 383.921875 C 81.082031 383.921875 -8.960938 293.996094 -8.960938 183.066406 C -8.960938 72.136719 81.082031 -17.789062 192.152344 -17.789062 C 303.222656 -17.789062 393.261719 72.136719 393.261719 183.066406 Z M 393.261719 183.066406 " clip-rule="nonzero"/></clipPath><clipPath id="ce589bc945"><path d="M 230.765625 164.855469 L 247.792969 164.855469 L 247.792969 183.46875 L 230.765625 183.46875 Z M 230.765625 164.855469 " clip-rule="nonzero"/></clipPath><clipPath id="70779f30ba"><path d="M 393.261719 183.066406 C 393.261719 293.996094 303.222656 383.921875 192.152344 383.921875 C 81.082031 383.921875 -8.960938 293.996094 -8.960938 183.066406 C -8.960938 72.136719 81.082031 -17.789062 192.152344 -17.789062 C 303.222656 -17.789062 393.261719 72.136719 393.261719 183.066406 Z M 393.261719 183.066406 " clip-rule="nonzero"/></clipPath><clipPath id="8caaa95034"><path d="M 175 209.3125 L 213.601562 209.3125 L 213.601562 225.78125 L 175 225.78125 Z M 175 209.3125 " clip-rule="nonzero"/></clipPath><clipPath id="65304980be"><path d="M 393.261719 183.066406 C 393.261719 293.996094 303.222656 383.921875 192.152344 383.921875 C 81.082031 383.921875 -8.960938 293.996094 -8.960938 183.066406 C -8.960938 72.136719 81.082031 -17.789062 192.152344 -17.789062 C 303.222656 -17.789062 393.261719 72.136719 393.261719 183.066406 Z M 393.261719 183.066406 " clip-rule="nonzero"/></clipPath><clipPath id="774bd7af86"><path d="M 148 116 L 240.550781 116 L 240.550781 219.621094 L 148 219.621094 Z M 148 116 " clip-rule="nonzero"/></clipPath><clipPath id="73cc639acf"><path d="M 393.261719 183.066406 C 393.261719 293.996094 303.222656 383.921875 192.152344 383.921875 C 81.082031 383.921875 -8.960938 293.996094 -8.960938 183.066406 C -8.960938 72.136719 81.082031 -17.789062 192.152344 -17.789062 C 303.222656 -17.789062 393.261719 72.136719 393.261719 183.066406 Z M 393.261719 183.066406 " clip-rule="nonzero"/></clipPath><clipPath id="8a2488b850"><path d="M 72.289062 237.832031 L 312 237.832031 L 312 383.921875 L 72.289062 383.921875 Z M 72.289062 237.832031 " clip-rule="nonzero"/></clipPath><clipPath id="d58bf1e754"><path d="M 393.261719 183.066406 C 393.261719 293.996094 303.222656 383.921875 192.152344 383.921875 C 81.082031 383.921875 -8.960938 293.996094 -8.960938 183.066406 C -8.960938 72.136719 81.082031 -17.789062 192.152344 -17.789062 C 303.222656 -17.789062 393.261719 72.136719 393.261719 183.066406 Z M 393.261719 183.066406 " clip-rule="nonzero"/></clipPath><clipPath id="23c970b636"><path d="M 148 116 L 241.222656 116 L 241.222656 167.9375 L 148 167.9375 Z M 148 116 " clip-rule="nonzero"/></clipPath><clipPath id="dfed7727d4"><path d="M 393.261719 183.066406 C 393.261719 293.996094 303.222656 383.921875 192.152344 383.921875 C 81.082031 383.921875 -8.960938 293.996094 -8.960938 183.066406 C -8.960938 72.136719 81.082031 -17.789062 192.152344 -17.789062 C 303.222656 -17.789062 393.261719 72.136719 393.261719 183.066406 Z M 393.261719 183.066406 " clip-rule="nonzero"/></clipPath><clipPath id="3620cbf27b"><path d="M 137.179688 77.148438 L 251.949219 77.148438 L 251.949219 168.335938 L 137.179688 168.335938 Z M 137.179688 77.148438 " clip-rule="nonzero"/></clipPath><clipPath id="6a628847da"><path d="M 393.261719 183.066406 C 393.261719 293.996094 303.222656 383.921875 192.152344 383.921875 C 81.082031 383.921875 -8.960938 293.996094 -8.960938 183.066406 C -8.960938 72.136719 81.082031 -17.789062 192.152344 -17.789062 C 303.222656 -17.789062 393.261719 72.136719 393.261719 183.066406 Z M 393.261719 183.066406 " clip-rule="nonzero"/></clipPath><clipPath id="c53e08728f"><path d="M 214.40625 61.617188 L 268 61.617188 L 268 118.390625 L 214.40625 118.390625 Z M 214.40625 61.617188 " clip-rule="nonzero"/></clipPath><clipPath id="87627cdad4"><path d="M 393.261719 183.066406 C 393.261719 293.996094 303.222656 383.921875 192.152344 383.921875 C 81.082031 383.921875 -8.960938 293.996094 -8.960938 183.066406 C -8.960938 72.136719 81.082031 -17.789062 192.152344 -17.789062 C 303.222656 -17.789062 393.261719 72.136719 393.261719 183.066406 Z M 393.261719 183.066406 " clip-rule="nonzero"/></clipPath><clipPath id="ca2303ef97"><path d="M 114.253906 61.082031 L 170.699219 61.082031 L 170.699219 118.925781 L 114.253906 118.925781 Z M 114.253906 61.082031 " clip-rule="nonzero"/></clipPath><clipPath id="0aa8922537"><path d="M 393.261719 183.066406 C 393.261719 293.996094 303.222656 383.921875 192.152344 383.921875 C 81.082031 383.921875 -8.960938 293.996094 -8.960938 183.066406 C -8.960938 72.136719 81.082031 -17.789062 192.152344 -17.789062 C 303.222656 -17.789062 393.261719 72.136719 393.261719 183.066406 Z M 393.261719 183.066406 " clip-rule="nonzero"/></clipPath><clipPath id="f7c22af6b1"><path d="M 232.507812 146.644531 L 241.757812 146.644531 L 241.757812 216.945312 L 232.507812 216.945312 Z M 232.507812 146.644531 " clip-rule="nonzero"/></clipPath><clipPath id="eb4a955ad8"><path d="M 393.261719 183.066406 C 393.261719 293.996094 303.222656 383.921875 192.152344 383.921875 C 81.082031 383.921875 -8.960938 293.996094 -8.960938 183.066406 C -8.960938 72.136719 81.082031 -17.789062 192.152344 -17.789062 C 303.222656 -17.789062 393.261719 72.136719 393.261719 183.066406 Z M 393.261719 183.066406 " clip-rule="nonzero"/></clipPath><clipPath id="533d8c77e0"><path d="M 149.515625 151.867188 L 158.765625 151.867188 L 158.765625 217.882812 L 149.515625 217.882812 Z M 149.515625 151.867188 " clip-rule="nonzero"/></clipPath><clipPath id="03d119f040"><path d="M 393.261719 183.066406 C 393.261719 293.996094 303.222656 383.921875 192.152344 383.921875 C 81.082031 383.921875 -8.960938 293.996094 -8.960938 183.066406 C -8.960938 72.136719 81.082031 -17.789062 192.152344 -17.789062 C 303.222656 -17.789062 393.261719 72.136719 393.261719 183.066406 Z M 393.261719 183.066406 " clip-rule="nonzero"/></clipPath><clipPath id="98bc9ddef6"><path d="M 73.382812 345.066406 L 310.847656 345.066406 L 310.847656 384 L 73.382812 384 Z M 73.382812 345.066406 " clip-rule="nonzero"/></clipPath></defs><g clip-path="url(#e8c741b1ff)"><g clip-path="url(#7d6a1d1432)"><path fill="#c57b57" d="M 235.394531 252.574219 L 204.835938 265.652344 C 203.570312 266.191406 202.105469 266.199219 200.835938 265.660156 L 164.0625 250.148438 C 160.507812 248.652344 158.839844 244.6875 162.328125 243.074219 L 163.269531 242.753906 C 166.707031 241.164062 172.542969 239.1875 174.757812 236.351562 C 176.964844 233.519531 176.195312 229.574219 176.195312 226.085938 L 176 223.902344 L 175.710938 220.601562 L 175.417969 217.277344 L 175.320312 216.164062 L 175.113281 213.839844 C 175.113281 211.503906 177.195312 209.605469 179.777344 209.582031 L 193.054688 209.46875 L 208.835938 209.335938 C 211.46875 209.3125 213.613281 211.257812 213.582031 213.640625 L 213.425781 216.496094 L 213.203125 220.503906 L 213.003906 224.09375 L 212.917969 225.59375 C 212.878906 228.933594 213.289062 233.941406 215.441406 236.84375 C 217.589844 239.742188 222.390625 240.199219 225.882812 241.285156 L 234.90625 244.691406 C 238.902344 245.929688 239.210938 250.9375 235.394531 252.574219 " fill-opacity="1" fill-rule="nonzero"/></g></g><g clip-path="url(#20162b9a4d)"><g clip-path="url(#483e8bba8f)"><path fill="#c57b57" d="M 150.953125 183.097656 C 150.929688 183.105469 150.898438 183.117188 150.871094 183.121094 C 150.816406 183.132812 150.761719 183.148438 150.707031 183.160156 C 150.492188 183.210938 150.277344 183.253906 150.054688 183.289062 C 149.789062 183.328125 149.519531 183.359375 149.253906 183.367188 C 149.171875 183.375 149.097656 183.378906 149.019531 183.378906 C 148.964844 183.382812 148.910156 183.382812 148.855469 183.382812 C 143.9375 183.421875 139.164062 179.160156 137.84375 173.304688 C 136.859375 168.933594 138.15625 165.476562 140.800781 163.488281 C 141.988281 162.59375 143.445312 161.996094 145.09375 161.742188 C 146.074219 161.589844 147.058594 161.574219 148.015625 161.6875 C 148.472656 161.738281 148.921875 161.824219 149.363281 161.933594 C 153 162.855469 156.0625 165.746094 157.097656 170.347656 C 158.441406 176.3125 155.722656 181.800781 150.953125 183.097656 " fill-opacity="1" fill-rule="nonzero"/></g></g><g clip-path="url(#0ca478fbd5)"><g clip-path="url(#7ad737e941)"><path fill="#8b2f00" d="M 156.039062 172.308594 C 154.824219 166.929688 150.355469 164.304688 145.839844 165 C 141.320312 165.695312 138.46875 169.445312 139.679688 174.824219 C 140.890625 180.203125 145.535156 184 150.050781 183.300781 C 146.335938 183.875 142.511719 180.75 141.511719 176.324219 C 140.515625 171.894531 142.867188 168.804688 146.582031 168.234375 C 150.300781 167.664062 153.980469 169.824219 154.980469 174.25 C 155.945312 178.539062 153.90625 182.476562 150.398438 183.242188 C 154.703125 182.355469 157.214844 177.546875 156.039062 172.308594 " fill-opacity="1" fill-rule="nonzero"/></g></g><g clip-path="url(#8191072cf7)"><g clip-path="url(#ffa91d2bbd)"><path fill="#c57b57" d="M 249.328125 173.335938 C 248.082031 178.847656 243.773438 182.945312 239.171875 183.371094 C 238.910156 183.394531 238.644531 183.40625 238.386719 183.40625 L 238.382812 183.40625 C 238.226562 183.40625 238.070312 183.402344 237.914062 183.390625 C 237.648438 183.378906 237.382812 183.351562 237.113281 183.308594 C 236.878906 183.273438 236.648438 183.230469 236.425781 183.171875 C 236.382812 183.164062 236.339844 183.152344 236.296875 183.144531 C 236.269531 183.136719 236.242188 183.128906 236.214844 183.117188 C 231.449219 181.820312 228.730469 176.328125 230.074219 170.363281 C 231.132812 165.691406 234.277344 162.785156 237.992188 161.914062 C 238.703125 161.746094 239.4375 161.65625 240.179688 161.640625 C 240.808594 161.628906 241.445312 161.667969 242.085938 161.765625 C 244.433594 162.128906 246.40625 163.195312 247.746094 164.820312 C 249.4375 166.871094 250.128906 169.804688 249.328125 173.335938 " fill-opacity="1" fill-rule="nonzero"/></g></g><g clip-path="url(#ce589bc945)"><g clip-path="url(#70779f30ba)"><path fill="#8b2f00" d="M 231.132812 172.328125 C 232.351562 166.949219 236.820312 164.324219 241.339844 165.023438 C 245.855469 165.71875 248.707031 169.472656 247.492188 174.851562 C 246.277344 180.226562 241.628906 184.023438 237.113281 183.328125 C 240.832031 183.898438 244.660156 180.773438 245.65625 176.347656 C 246.65625 171.921875 244.308594 168.832031 240.589844 168.257812 C 236.871094 167.683594 233.191406 169.84375 232.191406 174.269531 C 231.222656 178.558594 233.261719 182.496094 236.769531 183.261719 C 232.464844 182.371094 229.953125 177.566406 231.132812 172.328125 " fill-opacity="1" fill-rule="nonzero"/></g></g><g clip-path="url(#8caaa95034)"><g clip-path="url(#65304980be)"><path fill="#8b2f00" d="M 213.582031 213.640625 L 213.425781 216.496094 L 213.203125 220.503906 C 210.410156 221.441406 207.488281 222.039062 204.472656 222.25 C 202.765625 222.371094 201.113281 222.957031 199.679688 223.972656 C 196.410156 226.289062 192.191406 226.289062 188.921875 223.96875 C 188.203125 223.460938 187.433594 223.058594 186.628906 222.769531 C 185.824219 222.480469 184.980469 222.308594 184.128906 222.246094 C 181.226562 222.042969 178.40625 221.480469 175.710938 220.601562 L 175.417969 217.277344 L 175.320312 216.164062 L 175.113281 213.839844 C 175.113281 211.503906 177.195312 209.605469 179.777344 209.582031 L 193.054688 209.46875 L 208.835938 209.335938 C 211.472656 209.3125 213.617188 211.257812 213.582031 213.640625 " fill-opacity="1" fill-rule="nonzero"/></g></g><g clip-path="url(#774bd7af86)"><g clip-path="url(#73cc639acf)"><path fill="#c57b57" d="M 240.179688 158.46875 L 240.179688 164.914062 L 240.464844 168.242188 L 240.175781 171.222656 L 240.175781 173.746094 C 240.175781 177.019531 239.835938 180.210938 239.191406 183.273438 C 239.1875 183.292969 239.183594 183.316406 239.179688 183.34375 C 239.175781 183.347656 239.175781 183.359375 239.171875 183.371094 C 236.097656 197.867188 226.25 209.5625 213.558594 214.121094 C 210.597656 215.1875 207.476562 215.863281 204.253906 216.09375 C 202.546875 216.214844 200.894531 216.804688 199.460938 217.832031 C 196.1875 220.183594 191.972656 220.179688 188.699219 217.832031 C 187.984375 217.316406 187.214844 216.910156 186.410156 216.617188 C 185.605469 216.324219 184.765625 216.148438 183.910156 216.085938 C 180.886719 215.867188 177.957031 215.257812 175.15625 214.304688 C 162.214844 209.886719 152.140625 198.074219 149.019531 183.386719 C 149.019531 183.386719 149.019531 183.382812 149.019531 183.378906 C 149.019531 183.378906 149.015625 183.371094 149.015625 183.367188 C 148.355469 180.265625 148.011719 177.039062 148.011719 173.722656 L 148.011719 168.148438 L 148.015625 164.917969 L 148.015625 158.445312 C 148.019531 135.097656 165.304688 116.003906 186.425781 116.011719 L 201.785156 116.011719 C 222.910156 116.019531 240.183594 135.125 240.179688 158.46875 " fill-opacity="1" fill-rule="nonzero"/></g></g><g clip-path="url(#8a2488b850)"><g clip-path="url(#d58bf1e754)"><path fill="#893168" d="M 311.933594 369.402344 C 311.726562 380.625 311.246094 541.59375 310.734375 555.964844 L 74.820312 555.964844 C 73.949219 539.613281 73.03125 377.644531 72.554688 372.667969 C 71.488281 361.550781 74.355469 323.59375 78.617188 312.128906 C 79.378906 310.089844 80.253906 307.851562 81.261719 305.460938 C 81.757812 304.289062 82.285156 303.082031 82.84375 301.839844 C 86.691406 293.320312 92.097656 283.363281 99.566406 273.824219 C 100.570312 272.542969 101.613281 271.265625 102.695312 270.003906 C 102.765625 269.917969 102.839844 269.832031 102.914062 269.746094 C 102.976562 269.671875 103.046875 269.59375 103.113281 269.515625 C 103.183594 269.433594 103.257812 269.347656 103.332031 269.265625 C 103.832031 268.6875 104.34375 268.109375 104.863281 267.539062 C 105.589844 266.738281 106.339844 265.964844 107.113281 265.210938 C 107.191406 265.132812 107.269531 265.054688 107.347656 264.980469 C 107.449219 264.882812 107.550781 264.785156 107.652344 264.683594 C 107.734375 264.609375 107.8125 264.535156 107.890625 264.460938 C 122.035156 251.144531 142.699219 244.722656 142.699219 244.722656 C 146.164062 243.332031 171.847656 238.613281 171.847656 238.613281 C 171.855469 238.65625 171.863281 238.695312 171.871094 238.734375 C 172.464844 242.0625 173.910156 244.996094 177.308594 246.882812 C 180.070312 248.417969 183.355469 249.054688 186.605469 249.449219 C 191.714844 250.066406 196.949219 250.117188 202.050781 249.378906 C 206.511719 248.738281 212.167969 247.65625 215.296875 244.636719 C 217.363281 242.632812 217.824219 240.28125 216.5 237.933594 C 216.488281 237.914062 216.480469 237.898438 216.46875 237.878906 C 216.46875 237.878906 241.261719 243.214844 248.789062 246.417969 C 248.863281 246.449219 248.9375 246.480469 249.011719 246.515625 C 249.371094 246.664062 249.726562 246.820312 250.082031 246.976562 C 273.601562 257.296875 291.796875 274.945312 301.410156 296.269531 C 310.203125 315.777344 312.296875 349.738281 311.933594 369.402344 " fill-opacity="1" fill-rule="nonzero"/></g></g><g clip-path="url(#23c970b636)"><g clip-path="url(#dfed7727d4)"><path fill="#8b2f00" d="M 240.179688 158.46875 L 240.179688 164.914062 L 240.902344 166.054688 L 241.117188 167.148438 C 240.992188 167.179688 240.363281 167.785156 240.246094 167.804688 C 237.921875 161.957031 238.941406 157.515625 236.617188 151.664062 C 236.058594 150.261719 235.496094 148.828125 235.363281 147.308594 C 235.230469 145.722656 235.570312 144.09375 235.242188 142.542969 C 234.472656 138.898438 229.332031 138.390625 230.960938 135.109375 C 228.574219 134.203125 226.546875 132.273438 225.316406 129.863281 C 224.929688 129.109375 223.890625 129.089844 223.460938 129.816406 C 222.523438 131.40625 220.890625 132.648438 219.273438 133.460938 C 216.757812 134.722656 214.78125 132.9375 212.972656 135.230469 C 211.84375 136.652344 211.183594 138.578125 209.726562 139.574219 C 207.5 141.089844 204.503906 139.765625 202.003906 140.652344 C 199.644531 141.492188 198.089844 144.175781 195.6875 144.859375 C 193.332031 145.53125 190.828125 144.078125 188.425781 144.546875 C 185.902344 145.042969 183.941406 147.578125 181.378906 147.765625 C 178.53125 147.96875 175.597656 145.210938 173.066406 146.652344 C 172.054688 147.226562 171.402344 148.367188 170.429688 149.011719 C 167.316406 151.070312 162.839844 147.242188 159.828125 149.476562 C 157.234375 151.398438 158.007812 156.199219 155.675781 158.492188 C 153.996094 160.148438 151.265625 159.910156 149.554688 161.523438 C 148.921875 162.117188 148.457031 162.933594 148.015625 163.753906 L 148.015625 158.445312 C 148.019531 135.097656 165.304688 116.003906 186.425781 116.011719 L 201.785156 116.011719 C 222.910156 116.019531 240.183594 135.125 240.179688 158.46875 " fill-opacity="1" fill-rule="nonzero"/></g></g><g clip-path="url(#3620cbf27b)"><g clip-path="url(#6a628847da)"><path fill="#251605" d="M 207.542969 82.570312 C 207.292969 78.984375 203.144531 77.433594 199.890625 77.839844 C 196.636719 78.242188 193.308594 79.6875 190.195312 78.558594 C 188.5 77.941406 186.695312 76.589844 185.109375 77.484375 C 184.140625 78.035156 183.65625 79.269531 182.753906 79.941406 C 179.757812 82.183594 175.71875 76.742188 172.425781 78.398438 C 171.367188 78.929688 170.699219 80.085938 169.789062 80.878906 C 166.46875 83.785156 160.535156 81.582031 158.066406 85.375 C 157.28125 86.582031 157.003906 88.257812 155.867188 89.0625 C 155.085938 89.613281 154.101562 89.601562 153.191406 89.792969 C 149.300781 90.617188 146.9375 96.101562 148.820312 99.929688 C 143.601562 100.113281 139.75 107.21875 142.089844 112.347656 C 142.371094 112.964844 142.726562 113.578125 142.753906 114.265625 C 142.847656 116.902344 138.636719 117.152344 137.960938 119.679688 C 137.308594 122.117188 140.449219 123.996094 140.496094 126.535156 C 140.550781 129.367188 136.792969 131.195312 137.296875 133.972656 C 137.621094 135.773438 139.605469 136.664062 140.195312 138.382812 C 141.292969 141.558594 137.089844 144.40625 137.492188 147.769531 C 137.726562 149.71875 139.410156 151.011719 140.277344 152.730469 C 141.316406 154.789062 141.113281 157.308594 141.585938 159.605469 C 142.054688 161.902344 144.75 165.339844 146.820312 164.742188 C 148.9375 164.136719 148.550781 160.027344 150.210938 158.464844 C 151.921875 156.847656 154.652344 157.089844 156.332031 155.433594 C 158.664062 153.140625 157.894531 148.339844 160.484375 146.414062 C 163.496094 144.183594 167.972656 148.011719 171.085938 145.953125 C 172.058594 145.308594 172.710938 144.167969 173.722656 143.59375 C 176.253906 142.152344 179.1875 144.914062 182.035156 144.707031 C 184.597656 144.519531 186.558594 141.984375 189.085938 141.488281 C 191.484375 141.019531 193.984375 142.472656 196.347656 141.796875 C 198.746094 141.117188 200.300781 138.429688 202.664062 137.59375 C 205.160156 136.707031 208.15625 138.03125 210.382812 136.511719 C 211.84375 135.519531 212.503906 133.597656 213.628906 132.171875 C 215.4375 129.878906 217.414062 131.660156 219.929688 130.402344 C 221.546875 129.585938 223.179688 128.347656 224.121094 126.753906 C 224.546875 126.03125 225.589844 126.050781 225.972656 126.804688 C 227.203125 129.210938 229.234375 131.144531 231.617188 132.050781 C 229.988281 135.332031 235.128906 135.839844 235.902344 139.484375 C 236.230469 141.035156 235.886719 142.660156 236.019531 144.246094 C 236.152344 145.769531 236.714844 147.203125 237.273438 148.605469 C 239.597656 154.453125 238.140625 162.394531 240.464844 168.238281 C 243.59375 167.765625 249.28125 162 249.738281 158.566406 C 250.199219 155.132812 249.707031 151.578125 250.402344 148.199219 C 250.957031 145.5 252.261719 142.859375 251.832031 140.132812 C 251.574219 138.507812 250.714844 137.046875 250.519531 135.414062 C 250.195312 132.679688 251.769531 129.988281 251.425781 127.253906 C 251.019531 124.046875 248.167969 121.914062 247 118.9375 C 245.199219 114.355469 247.4375 108.046875 244.09375 104.664062 C 242.992188 103.554688 241.46875 103.027344 240.457031 101.824219 C 239.125 100.246094 238.878906 97.75 237.347656 96.40625 C 236.011719 95.226562 234.09375 95.296875 232.554688 94.46875 C 230.40625 93.320312 229.347656 90.679688 227.773438 88.703125 C 226.246094 86.777344 223.613281 85.6875 221.625 87.355469 C 219.527344 83.125 211.367188 80.261719 207.542969 82.570312 " fill-opacity="1" fill-rule="nonzero"/></g></g><g clip-path="url(#c53e08728f)"><g clip-path="url(#87627cdad4)"><path fill="#251605" d="M 214.503906 81.953125 C 215.09375 79.421875 217.5 77.65625 219.726562 78.117188 C 218.25 75.742188 219.363281 71.847656 221.773438 70.960938 C 222.464844 70.707031 223.261719 70.636719 223.761719 70.03125 C 224.195312 69.503906 224.277344 68.726562 224.511719 68.050781 C 225.308594 65.707031 227.734375 64.84375 229.851562 64.273438 C 232.566406 63.546875 235.277344 62.820312 237.988281 62.09375 C 240.046875 61.542969 242.746094 61.308594 243.722656 63.472656 C 243.988281 64.0625 244.105469 64.808594 244.59375 65.15625 C 245.054688 65.484375 245.648438 65.308594 246.160156 65.121094 C 247.714844 64.550781 249.300781 63.902344 250.925781 64.023438 C 252.550781 64.140625 254.257812 65.261719 254.644531 67.09375 C 254.808594 67.855469 254.730469 68.691406 255.011719 69.40625 C 255.71875 71.226562 257.929688 71.09375 259.652344 71.007812 C 261.992188 70.890625 264.5 71.519531 266.125 73.476562 C 267.746094 75.429688 268.066406 78.929688 266.34375 80.769531 C 268.691406 83.449219 268.042969 88.710938 265.144531 90.523438 C 267.308594 92.277344 268.398438 95.632812 267.773438 98.605469 C 267.144531 101.578125 264.835938 103.96875 262.214844 104.367188 C 263.582031 108.566406 261.425781 113.832031 257.753906 115.261719 C 254.792969 116.417969 251.511719 115.269531 248.441406 115.945312 C 246.441406 116.386719 244.617188 117.578125 242.636719 118.101562 C 240.648438 118.621094 238.234375 118.246094 237.132812 116.261719 C 236.492188 115.109375 236.417969 113.617188 235.726562 112.503906 C 233.804688 109.417969 228.742188 111.242188 226.996094 108.015625 C 225.886719 105.960938 226.871094 102.945312 225.578125 101.035156 C 224.449219 99.375 222.285156 99.507812 220.574219 98.78125 C 217.941406 97.660156 213.765625 85.09375 214.503906 81.953125 " fill-opacity="1" fill-rule="nonzero"/></g></g><g clip-path="url(#ca2303ef97)"><g clip-path="url(#0aa8922537)"><path fill="#251605" d="M 170.519531 81.789062 C 169.898438 79.210938 167.371094 77.414062 165.027344 77.882812 C 166.582031 75.457031 165.410156 71.488281 162.875 70.585938 C 162.148438 70.324219 161.3125 70.257812 160.785156 69.636719 C 160.328125 69.101562 160.242188 68.304688 160 67.613281 C 159.160156 65.226562 156.609375 64.347656 154.378906 63.765625 C 151.527344 63.023438 148.675781 62.285156 145.824219 61.542969 C 143.664062 60.980469 140.824219 60.742188 139.796875 62.949219 C 139.515625 63.550781 139.394531 64.3125 138.878906 64.667969 C 138.394531 64.996094 137.773438 64.824219 137.234375 64.632812 C 135.597656 64.046875 133.933594 63.386719 132.222656 63.507812 C 130.511719 63.628906 128.722656 64.773438 128.3125 66.640625 C 128.140625 67.421875 128.21875 68.269531 127.925781 69 C 127.183594 70.855469 124.859375 70.71875 123.046875 70.628906 C 120.589844 70.511719 117.949219 71.15625 116.242188 73.148438 C 114.535156 75.140625 114.199219 78.714844 116.011719 80.585938 C 113.542969 83.320312 114.226562 88.6875 117.273438 90.535156 C 114.996094 92.324219 113.847656 95.746094 114.511719 98.773438 C 115.171875 101.804688 117.597656 104.246094 120.351562 104.652344 C 118.914062 108.933594 121.183594 114.300781 125.042969 115.761719 C 128.15625 116.941406 131.605469 115.773438 134.835938 116.460938 C 136.9375 116.90625 138.855469 118.125 140.941406 118.65625 C 143.027344 119.1875 145.570312 118.800781 146.726562 116.78125 C 147.398438 115.605469 147.476562 114.082031 148.207031 112.949219 C 150.226562 109.804688 155.546875 111.660156 157.382812 108.375 C 158.550781 106.277344 157.515625 103.199219 158.875 101.253906 C 160.0625 99.5625 162.335938 99.695312 164.140625 98.953125 C 166.90625 97.8125 171.292969 84.996094 170.519531 81.789062 " fill-opacity="1" fill-rule="nonzero"/></g></g><g clip-path="url(#f7c22af6b1)"><g clip-path="url(#eb4a955ad8)"><path fill="#251605" d="M 237.839844 148.042969 C 237.886719 148.199219 237.921875 148.351562 237.957031 148.507812 C 237.972656 148.574219 237.964844 148.699219 237.953125 148.453125 C 237.957031 148.527344 237.96875 148.605469 237.972656 148.679688 C 237.976562 148.808594 237.976562 148.933594 237.964844 149.0625 C 237.960938 149.121094 237.925781 149.378906 237.972656 149.078125 C 237.960938 149.152344 237.949219 149.226562 237.933594 149.304688 C 237.875 149.582031 237.792969 149.855469 237.695312 150.121094 C 237.671875 150.171875 237.652344 150.222656 237.632812 150.269531 C 237.734375 150.011719 237.636719 150.265625 237.613281 150.3125 C 237.546875 150.460938 237.476562 150.609375 237.402344 150.753906 C 236.828125 151.867188 236.09375 152.890625 235.554688 154.019531 C 234.960938 155.277344 234.613281 156.613281 234.929688 158 C 235.21875 159.257812 236.0625 160.300781 236.949219 161.199219 C 237.371094 161.625 237.808594 162.035156 238.222656 162.464844 C 238.417969 162.667969 238.609375 162.871094 238.789062 163.085938 C 238.828125 163.136719 238.871094 163.1875 238.910156 163.238281 C 238.734375 163.023438 238.898438 163.226562 238.929688 163.269531 C 239.019531 163.394531 239.101562 163.519531 239.179688 163.652344 C 239.246094 163.757812 239.304688 163.871094 239.359375 163.984375 C 239.386719 164.039062 239.460938 164.269531 239.371094 164.003906 C 239.386719 164.050781 239.40625 164.097656 239.421875 164.144531 C 239.472656 164.289062 239.511719 164.433594 239.542969 164.582031 C 239.550781 164.636719 239.558594 164.6875 239.570312 164.738281 C 239.515625 164.429688 239.5625 164.78125 239.566406 164.84375 C 239.570312 164.914062 239.570312 164.980469 239.566406 165.046875 C 239.566406 165.074219 239.535156 165.402344 239.570312 165.160156 C 239.546875 165.320312 239.507812 165.480469 239.460938 165.636719 C 239.433594 165.730469 239.402344 165.820312 239.367188 165.914062 C 239.4375 165.726562 239.359375 165.925781 239.339844 165.96875 C 239.246094 166.164062 239.136719 166.347656 239.019531 166.527344 C 238.722656 166.976562 238.195312 167.523438 237.660156 168.015625 C 237.101562 168.53125 236.507812 169.011719 235.996094 169.574219 C 234.78125 170.902344 233.824219 172.652344 234.316406 174.496094 C 234.71875 175.992188 235.949219 176.90625 237.140625 177.769531 C 237.261719 177.859375 237.382812 177.953125 237.503906 178.039062 C 237.75 178.21875 237.34375 177.90625 237.578125 178.09375 C 237.621094 178.132812 237.671875 178.167969 237.71875 178.207031 C 237.996094 178.4375 238.25 178.6875 238.492188 178.953125 C 238.515625 178.980469 238.605469 179.105469 238.5 178.960938 C 238.554688 179.039062 238.609375 179.117188 238.660156 179.199219 C 238.746094 179.335938 238.816406 179.480469 238.890625 179.625 C 239.027344 179.898438 238.835938 179.4375 238.929688 179.726562 C 238.949219 179.789062 238.972656 179.851562 238.992188 179.914062 C 239.058594 180.117188 239.09375 180.324219 239.140625 180.53125 C 239.179688 180.710938 239.128906 180.285156 239.144531 180.589844 C 239.152344 180.6875 239.160156 180.785156 239.164062 180.882812 C 239.167969 181.046875 239.164062 181.214844 239.15625 181.378906 C 239.15625 181.367188 239.125 181.691406 239.144531 181.53125 C 239.164062 181.371094 239.113281 181.6875 239.117188 181.679688 C 239.078125 181.871094 239.027344 182.058594 238.96875 182.246094 C 238.9375 182.339844 238.90625 182.433594 238.867188 182.519531 C 238.945312 182.335938 238.855469 182.527344 238.832031 182.574219 C 238.753906 182.734375 238.660156 182.882812 238.5625 183.03125 C 238.457031 183.195312 238.519531 183.089844 238.550781 183.054688 C 238.484375 183.136719 238.414062 183.214844 238.339844 183.292969 C 238.195312 183.449219 238.035156 183.585938 237.882812 183.726562 C 237.632812 183.945312 238.035156 183.625 237.765625 183.820312 C 237.707031 183.859375 237.652344 183.902344 237.59375 183.941406 C 237.421875 184.0625 237.246094 184.175781 237.0625 184.285156 C 236.734375 184.488281 236.394531 184.679688 236.054688 184.875 C 235.339844 185.296875 234.632812 185.753906 234.050781 186.359375 C 232.777344 187.6875 232.152344 189.574219 233.0625 191.28125 C 233.761719 192.605469 235.167969 193.28125 236.375 194.050781 C 236.519531 194.148438 236.664062 194.25 236.808594 194.351562 C 236.953125 194.464844 236.621094 194.195312 236.859375 194.394531 C 236.933594 194.457031 237.011719 194.519531 237.085938 194.585938 C 237.359375 194.824219 237.617188 195.085938 237.859375 195.359375 C 237.925781 195.433594 237.988281 195.511719 238.054688 195.589844 C 238.1875 195.746094 238.097656 195.644531 238.070312 195.605469 C 238.195312 195.765625 238.308594 195.929688 238.414062 196.097656 C 238.613281 196.402344 238.78125 196.71875 238.933594 197.046875 C 238.839844 196.839844 238.964844 197.128906 238.976562 197.152344 C 238.996094 197.210938 239.019531 197.269531 239.039062 197.332031 C 239.097656 197.496094 239.144531 197.664062 239.1875 197.832031 C 239.203125 197.910156 239.222656 197.984375 239.234375 198.0625 C 239.242188 198.101562 239.28125 198.40625 239.253906 198.148438 C 239.273438 198.332031 239.285156 198.515625 239.285156 198.703125 C 239.28125 198.855469 239.273438 199.007812 239.253906 199.160156 C 239.289062 198.902344 239.238281 199.203125 239.230469 199.242188 C 239.214844 199.300781 239.203125 199.363281 239.1875 199.421875 C 239.164062 199.511719 239.132812 199.601562 239.101562 199.691406 C 239.09375 199.71875 238.96875 199.996094 239.070312 199.785156 C 238.992188 199.945312 238.914062 200.097656 238.816406 200.246094 C 238.777344 200.308594 238.523438 200.632812 238.695312 200.429688 C 238.609375 200.53125 238.523438 200.632812 238.429688 200.730469 C 238.335938 200.828125 238.238281 200.921875 238.136719 201.015625 C 238.074219 201.066406 238.015625 201.121094 237.953125 201.175781 C 237.929688 201.191406 237.679688 201.382812 237.800781 201.296875 C 237.9375 201.195312 237.714844 201.355469 237.710938 201.359375 C 237.644531 201.410156 237.578125 201.457031 237.507812 201.503906 C 237.394531 201.582031 237.277344 201.660156 237.160156 201.734375 C 236.902344 201.902344 236.640625 202.0625 236.378906 202.222656 C 235.25 202.914062 234.128906 203.640625 233.371094 204.746094 C 232.390625 206.183594 232.414062 208.050781 233.023438 209.632812 C 233.644531 211.257812 234.738281 212.554688 235.628906 214.03125 C 236.078125 214.769531 236.316406 215.257812 236.496094 216.101562 C 236.617188 216.648438 237.285156 217.015625 237.8125 216.84375 C 238.386719 216.660156 238.6875 216.117188 238.558594 215.53125 C 238.1875 213.828125 237.140625 212.4375 236.183594 211.019531 C 235.949219 210.675781 235.722656 210.328125 235.519531 209.960938 C 235.320312 209.605469 235.140625 209.226562 235.042969 208.957031 C 234.910156 208.597656 234.808594 208.226562 234.746094 207.851562 C 234.777344 208.050781 234.734375 207.691406 234.734375 207.691406 C 234.722656 207.582031 234.722656 207.46875 234.722656 207.355469 C 234.722656 207.28125 234.726562 207.207031 234.730469 207.136719 C 234.742188 207.003906 234.742188 206.988281 234.726562 207.085938 C 234.734375 207.011719 234.75 206.941406 234.765625 206.867188 C 234.804688 206.691406 234.859375 206.527344 234.914062 206.355469 C 234.996094 206.097656 234.808594 206.542969 234.9375 206.308594 C 234.960938 206.261719 234.984375 206.210938 235.011719 206.164062 C 235.078125 206.035156 235.160156 205.914062 235.242188 205.792969 C 235.277344 205.738281 235.394531 205.601562 235.238281 205.785156 C 235.308594 205.707031 235.375 205.625 235.445312 205.546875 C 235.628906 205.351562 235.828125 205.179688 236.03125 205.007812 C 236.234375 204.828125 235.847656 205.136719 236.070312 204.976562 C 236.113281 204.941406 236.15625 204.910156 236.199219 204.878906 C 236.34375 204.773438 236.492188 204.675781 236.640625 204.578125 C 237.699219 203.882812 238.839844 203.292969 239.769531 202.414062 C 240.851562 201.378906 241.496094 199.933594 241.414062 198.425781 C 241.328125 196.796875 240.582031 195.320312 239.5625 194.078125 C 239.074219 193.480469 238.503906 192.972656 237.882812 192.511719 C 237.339844 192.105469 236.730469 191.789062 236.160156 191.414062 C 236.003906 191.3125 235.847656 191.203125 235.691406 191.089844 C 235.863281 191.214844 235.523438 190.945312 235.476562 190.90625 C 235.359375 190.800781 235.261719 190.6875 235.152344 190.578125 C 234.953125 190.378906 235.25 190.746094 235.097656 190.511719 C 235.046875 190.4375 234.996094 190.363281 234.949219 190.285156 C 234.90625 190.207031 234.863281 190.125 234.828125 190.042969 C 234.910156 190.234375 234.84375 190.082031 234.835938 190.039062 C 234.816406 189.949219 234.785156 189.859375 234.761719 189.765625 C 234.691406 189.484375 234.738281 189.917969 234.75 189.632812 C 234.753906 189.5625 234.75 189.492188 234.75 189.425781 C 234.746094 189.128906 234.691406 189.589844 234.761719 189.300781 C 234.78125 189.21875 234.800781 189.136719 234.824219 189.054688 C 234.835938 189.011719 234.957031 188.699219 234.878906 188.871094 C 234.953125 188.710938 235.039062 188.558594 235.132812 188.410156 C 235.1875 188.320312 235.25 188.230469 235.3125 188.148438 C 235.214844 188.277344 235.359375 188.097656 235.382812 188.070312 C 235.511719 187.917969 235.648438 187.777344 235.792969 187.640625 C 235.847656 187.59375 235.902344 187.542969 235.953125 187.5 C 236.007812 187.453125 236.0625 187.40625 236.121094 187.363281 C 236.039062 187.421875 236.054688 187.414062 236.15625 187.335938 C 236.792969 186.894531 237.480469 186.535156 238.144531 186.128906 C 239.570312 185.253906 240.765625 184.074219 241.144531 182.390625 C 241.5 180.839844 241.25 179.09375 240.285156 177.804688 C 239.808594 177.164062 239.21875 176.675781 238.582031 176.199219 C 238.328125 176.007812 238.070312 175.824219 237.816406 175.632812 C 237.753906 175.589844 237.695312 175.542969 237.636719 175.5 C 237.398438 175.320312 237.796875 175.636719 237.570312 175.449219 C 237.433594 175.332031 237.296875 175.222656 237.167969 175.105469 C 237.0625 175.003906 236.960938 174.902344 236.863281 174.796875 C 236.808594 174.734375 236.753906 174.667969 236.695312 174.605469 C 236.835938 174.769531 236.734375 174.65625 236.710938 174.613281 C 236.621094 174.46875 236.53125 174.324219 236.453125 174.171875 C 236.472656 174.207031 236.527344 174.375 236.460938 174.183594 C 236.417969 174.0625 236.382812 173.941406 236.351562 173.820312 C 236.296875 173.625 236.328125 173.730469 236.335938 173.789062 C 236.320312 173.683594 236.316406 173.574219 236.316406 173.472656 C 236.316406 173.367188 236.324219 173.265625 236.332031 173.160156 C 236.328125 173.210938 236.292969 173.34375 236.339844 173.136719 C 236.382812 172.949219 236.433594 172.765625 236.5 172.585938 C 236.566406 172.402344 236.386719 172.796875 236.535156 172.496094 C 236.601562 172.367188 236.664062 172.238281 236.738281 172.109375 C 236.828125 171.953125 236.933594 171.800781 237.035156 171.652344 C 237.078125 171.589844 237.121094 171.527344 237.167969 171.46875 C 237.058594 171.609375 237.289062 171.328125 237.28125 171.335938 C 237.546875 171.023438 237.832031 170.730469 238.132812 170.453125 C 238.683594 169.9375 239.273438 169.460938 239.796875 168.914062 C 240.914062 167.765625 241.847656 166.273438 241.6875 164.605469 C 241.554688 163.234375 240.828125 162.117188 239.902344 161.132812 C 239.503906 160.703125 239.078125 160.304688 238.664062 159.894531 C 238.460938 159.691406 238.261719 159.488281 238.070312 159.277344 C 237.976562 159.179688 237.890625 159.078125 237.800781 158.976562 C 237.75 158.914062 237.703125 158.851562 237.652344 158.792969 C 237.816406 158.996094 237.664062 158.804688 237.628906 158.753906 C 237.460938 158.523438 237.308594 158.277344 237.183594 158.019531 C 237.179688 158.007812 237.074219 157.773438 237.140625 157.9375 C 237.210938 158.097656 237.113281 157.859375 237.109375 157.847656 C 237.058594 157.699219 237.015625 157.546875 236.980469 157.394531 C 236.964844 157.316406 236.949219 157.234375 236.9375 157.15625 C 236.980469 157.414062 236.949219 157.226562 236.945312 157.15625 C 236.941406 157.011719 236.933594 156.867188 236.941406 156.722656 C 236.941406 156.636719 237.007812 156.234375 236.949219 156.53125 C 236.980469 156.375 237.007812 156.21875 237.050781 156.066406 C 237.085938 155.9375 237.121094 155.808594 237.164062 155.679688 C 237.195312 155.605469 237.21875 155.527344 237.25 155.453125 C 237.265625 155.40625 237.375 155.152344 237.265625 155.402344 C 237.390625 155.121094 237.527344 154.84375 237.671875 154.574219 C 237.96875 154.019531 238.300781 153.480469 238.621094 152.9375 C 239.273438 151.84375 239.890625 150.703125 240.0625 149.429688 C 240.152344 148.773438 240.101562 148.109375 239.898438 147.476562 C 239.726562 146.949219 239.152344 146.550781 238.585938 146.734375 C 238.054688 146.90625 237.65625 147.476562 237.839844 148.042969 " fill-opacity="1" fill-rule="nonzero"/></g></g><g clip-path="url(#533d8c77e0)"><g clip-path="url(#03d119f040)"><path fill="#251605" d="M 154.785156 153.285156 C 154.832031 153.425781 154.871094 153.5625 154.902344 153.703125 C 154.90625 153.738281 154.976562 153.9375 154.914062 153.769531 C 154.859375 153.609375 154.914062 153.78125 154.914062 153.832031 C 154.925781 153.96875 154.921875 154.105469 154.910156 154.242188 C 154.910156 154.261719 154.886719 154.355469 154.898438 154.378906 C 154.921875 154.207031 154.925781 154.179688 154.902344 154.296875 C 154.898438 154.34375 154.886719 154.386719 154.878906 154.433594 C 154.824219 154.6875 154.738281 154.929688 154.648438 155.171875 C 154.5625 155.394531 154.730469 155.011719 154.65625 155.148438 C 154.628906 155.203125 154.605469 155.261719 154.582031 155.316406 C 154.503906 155.472656 154.421875 155.628906 154.339844 155.785156 C 153.773438 156.808594 153.058594 157.75 152.523438 158.792969 C 151.917969 159.964844 151.5625 161.246094 151.867188 162.5625 C 152.140625 163.761719 152.976562 164.75 153.84375 165.582031 C 154.261719 165.984375 154.703125 166.363281 155.121094 166.769531 C 155.308594 166.945312 155.492188 167.128906 155.667969 167.320312 C 155.753906 167.417969 155.839844 167.519531 155.925781 167.621094 C 156.085938 167.808594 155.789062 167.425781 155.933594 167.625 C 155.972656 167.683594 156.015625 167.742188 156.054688 167.796875 C 156.128906 167.914062 156.203125 168.03125 156.269531 168.152344 C 156.289062 168.191406 156.3125 168.230469 156.332031 168.273438 C 156.4375 168.484375 156.304688 168.3125 156.335938 168.265625 C 156.316406 168.292969 156.441406 168.574219 156.453125 168.621094 C 156.46875 168.675781 156.480469 168.730469 156.492188 168.789062 C 156.554688 169.089844 156.5 168.65625 156.503906 168.851562 C 156.507812 168.992188 156.511719 169.128906 156.507812 169.273438 C 156.503906 169.5625 156.566406 169.070312 156.5 169.347656 C 156.480469 169.4375 156.460938 169.527344 156.4375 169.613281 C 156.421875 169.671875 156.40625 169.730469 156.386719 169.785156 C 156.371094 169.824219 156.25 170.082031 156.355469 169.863281 C 156.273438 170.027344 156.191406 170.1875 156.089844 170.34375 C 156.042969 170.421875 155.988281 170.496094 155.933594 170.574219 C 155.765625 170.828125 156.070312 170.425781 155.871094 170.65625 C 155.765625 170.78125 155.664062 170.902344 155.554688 171.019531 C 155.285156 171.304688 155 171.570312 154.703125 171.828125 C 154.128906 172.332031 153.515625 172.789062 152.976562 173.335938 C 151.777344 174.550781 150.808594 176.183594 151.238281 177.945312 C 151.589844 179.382812 152.796875 180.273438 153.953125 181.058594 C 154.210938 181.234375 154.46875 181.410156 154.71875 181.59375 C 154.722656 181.597656 154.941406 181.765625 154.8125 181.664062 C 154.683594 181.558594 154.898438 181.734375 154.898438 181.738281 C 155.039062 181.855469 155.171875 181.972656 155.300781 182.101562 C 155.347656 182.148438 155.394531 182.199219 155.441406 182.25 C 155.464844 182.28125 155.640625 182.496094 155.496094 182.308594 C 155.589844 182.429688 155.667969 182.554688 155.742188 182.6875 C 155.789062 182.765625 155.828125 182.847656 155.871094 182.929688 C 156.003906 183.183594 155.8125 182.730469 155.902344 183.003906 C 155.953125 183.179688 156.011719 183.347656 156.050781 183.527344 C 156.070312 183.613281 156.085938 183.703125 156.101562 183.792969 C 156.066406 183.5625 156.09375 183.765625 156.097656 183.824219 C 156.113281 183.992188 156.117188 184.160156 156.109375 184.324219 C 156.105469 184.414062 156.09375 184.507812 156.089844 184.597656 C 156.097656 184.386719 156.101562 184.527344 156.089844 184.582031 C 156.050781 184.789062 156.003906 184.996094 155.9375 185.195312 C 155.917969 185.253906 155.894531 185.308594 155.875 185.367188 C 155.960938 185.136719 155.855469 185.40625 155.835938 185.441406 C 155.761719 185.589844 155.679688 185.734375 155.585938 185.871094 C 155.554688 185.917969 155.425781 186.070312 155.5625 185.910156 C 155.496094 185.988281 155.433594 186.0625 155.363281 186.132812 C 155.222656 186.28125 155.074219 186.414062 154.921875 186.539062 C 154.679688 186.746094 155.085938 186.4375 154.820312 186.617188 C 154.738281 186.671875 154.65625 186.730469 154.574219 186.785156 C 154.433594 186.878906 154.289062 186.964844 154.144531 187.050781 C 153.792969 187.257812 153.429688 187.449219 153.074219 187.640625 C 152.363281 188.03125 151.671875 188.453125 151.074219 189.011719 C 149.785156 190.21875 149.109375 192.015625 149.953125 193.675781 C 150.621094 194.976562 152.039062 195.636719 153.238281 196.34375 C 153.371094 196.421875 153.5 196.5 153.625 196.585938 C 153.703125 196.636719 153.78125 196.6875 153.855469 196.742188 C 153.875 196.757812 154.121094 196.949219 153.9375 196.800781 C 154.207031 197.019531 154.464844 197.25 154.703125 197.496094 C 154.835938 197.632812 154.964844 197.769531 155.085938 197.917969 C 155.136719 197.972656 155.183594 198.035156 155.234375 198.097656 C 155.347656 198.238281 155.097656 197.898438 155.265625 198.144531 C 155.472656 198.449219 155.675781 198.75 155.839844 199.082031 C 155.878906 199.164062 155.914062 199.246094 155.953125 199.328125 C 155.867188 199.136719 155.933594 199.277344 155.949219 199.320312 C 156.007812 199.488281 156.070312 199.652344 156.113281 199.820312 C 156.152344 199.960938 156.179688 200.101562 156.207031 200.242188 C 156.265625 200.519531 156.203125 200.015625 156.214844 200.296875 C 156.21875 200.410156 156.230469 200.519531 156.230469 200.636719 C 156.230469 200.777344 156.21875 200.914062 156.207031 201.054688 C 156.234375 200.777344 156.171875 201.191406 156.152344 201.269531 C 156.128906 201.355469 156.101562 201.4375 156.074219 201.519531 C 156.0625 201.5625 155.9375 201.808594 156.050781 201.585938 C 155.976562 201.734375 155.902344 201.882812 155.8125 202.023438 C 155.769531 202.085938 155.726562 202.144531 155.683594 202.207031 C 155.839844 201.976562 155.699219 202.179688 155.664062 202.226562 C 155.578125 202.324219 155.496094 202.414062 155.40625 202.503906 C 155.316406 202.589844 155.222656 202.675781 155.128906 202.761719 C 155.070312 202.808594 155.007812 202.855469 154.949219 202.90625 C 155.175781 202.71875 154.90625 202.9375 154.859375 202.96875 C 154.390625 203.304688 153.886719 203.59375 153.386719 203.882812 C 152.265625 204.527344 151.144531 205.191406 150.363281 206.246094 C 149.367188 207.585938 149.34375 209.355469 149.941406 210.867188 C 150.253906 211.65625 150.664062 212.382812 151.15625 213.078125 C 151.628906 213.738281 152.132812 214.378906 152.574219 215.0625 C 152.78125 215.382812 152.976562 215.714844 153.140625 216.0625 C 153.171875 216.125 153.199219 216.1875 153.226562 216.25 C 153.144531 216.054688 153.265625 216.375 153.269531 216.382812 C 153.339844 216.578125 153.398438 216.78125 153.445312 216.984375 C 153.570312 217.53125 154.226562 217.902344 154.757812 217.730469 C 155.328125 217.546875 155.640625 217 155.503906 216.417969 C 155.117188 214.753906 154.03125 213.441406 153.0625 212.085938 C 152.855469 211.796875 152.65625 211.503906 152.472656 211.199219 C 152.363281 211.015625 152.257812 210.824219 152.164062 210.632812 C 152.121094 210.550781 152.082031 210.472656 152.042969 210.390625 C 152.019531 210.339844 152 210.292969 151.976562 210.242188 C 152.015625 210.332031 152.011719 210.320312 151.964844 210.199219 C 151.894531 210 151.824219 209.800781 151.773438 209.597656 C 151.753906 209.53125 151.738281 209.460938 151.722656 209.394531 C 151.71875 209.375 151.664062 209.039062 151.695312 209.269531 C 151.671875 209.101562 151.664062 208.929688 151.667969 208.757812 C 151.667969 208.65625 151.675781 208.554688 151.6875 208.453125 C 151.664062 208.675781 151.726562 208.277344 151.738281 208.234375 C 151.761719 208.152344 151.785156 208.070312 151.816406 207.988281 C 151.839844 207.921875 151.929688 207.746094 151.8125 207.984375 C 151.878906 207.847656 151.941406 207.71875 152.023438 207.59375 C 152.066406 207.519531 152.304688 207.226562 152.109375 207.449219 C 152.207031 207.339844 152.300781 207.230469 152.40625 207.125 C 152.507812 207.019531 152.617188 206.921875 152.730469 206.824219 C 152.78125 206.785156 152.828125 206.75 152.875 206.707031 C 152.996094 206.601562 152.664062 206.855469 152.871094 206.714844 C 153.125 206.539062 153.378906 206.367188 153.644531 206.203125 C 154.703125 205.558594 155.824219 205.007812 156.753906 204.167969 C 157.808594 203.210938 158.453125 201.820312 158.359375 200.382812 C 158.253906 198.820312 157.496094 197.417969 156.472656 196.265625 C 155.957031 195.683594 155.351562 195.171875 154.703125 194.742188 C 154.132812 194.359375 153.507812 194.0625 152.929688 193.691406 C 152.800781 193.609375 152.679688 193.523438 152.558594 193.441406 C 152.316406 193.28125 152.714844 193.582031 152.496094 193.394531 C 152.453125 193.359375 152.40625 193.324219 152.363281 193.285156 C 152.234375 193.171875 152.121094 193.050781 152.003906 192.925781 C 151.820312 192.738281 152.105469 193.105469 151.96875 192.878906 C 151.925781 192.8125 151.878906 192.742188 151.839844 192.671875 C 151.8125 192.625 151.71875 192.382812 151.808594 192.628906 C 151.777344 192.546875 151.75 192.46875 151.730469 192.386719 C 151.710938 192.324219 151.703125 192.265625 151.691406 192.207031 C 151.738281 192.449219 151.695312 192.164062 151.695312 192.117188 C 151.695312 192.074219 151.722656 191.777344 151.683594 192.03125 C 151.691406 191.972656 151.703125 191.914062 151.71875 191.855469 C 151.738281 191.761719 151.769531 191.675781 151.796875 191.585938 C 151.839844 191.472656 151.839844 191.472656 151.792969 191.582031 C 151.820312 191.527344 151.847656 191.46875 151.875 191.414062 C 151.953125 191.273438 152.039062 191.136719 152.132812 191.003906 C 152.300781 190.753906 151.996094 191.136719 152.207031 190.914062 C 152.277344 190.839844 152.339844 190.765625 152.410156 190.691406 C 152.523438 190.574219 152.644531 190.460938 152.773438 190.351562 C 152.785156 190.339844 153.042969 190.140625 152.867188 190.269531 C 152.945312 190.210938 153.027344 190.15625 153.109375 190.101562 C 153.753906 189.664062 154.460938 189.335938 155.136719 188.945312 C 156.546875 188.125 157.761719 186.980469 158.117188 185.328125 C 158.464844 183.722656 158.085938 182.050781 157.007812 180.800781 C 156.546875 180.269531 155.957031 179.855469 155.382812 179.457031 C 155.125 179.277344 154.867188 179.109375 154.613281 178.929688 C 154.5 178.851562 154.386719 178.765625 154.277344 178.683594 C 154.488281 178.84375 154.269531 178.675781 154.234375 178.648438 C 154.164062 178.585938 154.089844 178.527344 154.019531 178.460938 C 153.914062 178.363281 153.808594 178.261719 153.710938 178.15625 C 153.65625 178.097656 153.609375 178.035156 153.558594 177.976562 C 153.582031 178.003906 153.683594 178.160156 153.585938 178.003906 C 153.503906 177.867188 153.429688 177.734375 153.355469 177.597656 C 153.460938 177.792969 153.390625 177.691406 153.375 177.632812 C 153.339844 177.515625 153.308594 177.402344 153.277344 177.285156 C 153.203125 177.011719 153.261719 177.464844 153.265625 177.1875 C 153.269531 177.109375 153.261719 177.03125 153.265625 176.953125 C 153.269531 176.894531 153.296875 176.6875 153.261719 176.910156 C 153.277344 176.816406 153.296875 176.726562 153.320312 176.632812 C 153.34375 176.542969 153.375 176.453125 153.402344 176.363281 C 153.417969 176.328125 153.484375 176.179688 153.40625 176.351562 C 153.5 176.140625 153.613281 175.9375 153.738281 175.742188 C 154.054688 175.261719 154.59375 174.703125 155.167969 174.214844 C 155.738281 173.722656 156.328125 173.269531 156.863281 172.738281 C 158.027344 171.570312 158.839844 170.117188 158.585938 168.425781 C 158.410156 167.234375 157.628906 166.238281 156.792969 165.414062 C 156.382812 165.007812 155.941406 164.625 155.519531 164.226562 C 155.316406 164.039062 155.121094 163.847656 154.929688 163.644531 C 154.84375 163.558594 154.761719 163.464844 154.679688 163.375 C 154.632812 163.320312 154.585938 163.261719 154.539062 163.207031 C 154.515625 163.179688 154.492188 163.148438 154.46875 163.121094 C 154.421875 163.058594 154.4375 163.082031 154.527344 163.195312 C 154.433594 163.144531 154.339844 162.929688 154.285156 162.839844 C 154.222656 162.738281 154.164062 162.636719 154.109375 162.535156 C 154.097656 162.511719 154.007812 162.363281 154.019531 162.339844 C 154.039062 162.382812 154.054688 162.425781 154.074219 162.46875 C 154.054688 162.421875 154.039062 162.378906 154.023438 162.335938 C 153.976562 162.199219 153.941406 162.0625 153.910156 161.925781 C 153.859375 161.683594 153.863281 161.902344 153.902344 161.921875 C 153.894531 161.914062 153.890625 161.769531 153.890625 161.773438 C 153.878906 161.632812 153.878906 161.488281 153.890625 161.347656 C 153.890625 161.296875 153.894531 161.25 153.898438 161.203125 C 153.917969 160.953125 153.847656 161.449219 153.902344 161.203125 C 153.933594 161.050781 153.964844 160.898438 154.007812 160.75 C 154.046875 160.621094 154.089844 160.496094 154.136719 160.367188 C 154.160156 160.308594 154.214844 160.074219 154.140625 160.347656 C 154.152344 160.304688 154.183594 160.25 154.199219 160.210938 C 154.328125 159.933594 154.472656 159.660156 154.625 159.394531 C 154.929688 158.871094 155.265625 158.367188 155.585938 157.855469 C 156.253906 156.800781 156.871094 155.699219 157.027344 154.445312 C 157.097656 153.871094 157.035156 153.269531 156.84375 152.71875 C 156.660156 152.191406 156.101562 151.789062 155.53125 151.976562 C 155.007812 152.144531 154.589844 152.722656 154.785156 153.285156 " fill-opacity="1" fill-rule="nonzero"/></g></g><g clip-path="url(#98bc9ddef6)"><path fill="#893168" d="M 73.382812 345.066406 L 310.847656 345.066406 L 310.847656 384 L 73.382812 384 Z M 73.382812 345.066406 " fill-opacity="1" fill-rule="nonzero"/></g></svg>