<?xml version="1.0" encoding="UTF-8"?>
<svg xmlns="http://www.w3.org/2000/svg" xmlns:xlink="http://www.w3.org/1999/xlink" viewBox="0 0 250 250" width="250px" height="250px">
<g id="surface100311550">
<path style="fill-rule:nonzero;fill:rgb(100%,100%,100%);fill-opacity:1;stroke-width:13;stroke-linecap:butt;stroke-linejoin:round;stroke:rgb(100%,100%,100%);stroke-opacity:1;stroke-miterlimit:10;" d="M 166.913157 83.876521 C 163.770121 82.364728 160.600955 80.994782 157.405658 79.781615 C 153.333149 44.790137 132.974335 18.081792 108.479554 18.081792 C 81.065706 18.081792 58.758359 51.505484 58.758359 92.596394 C 58.758359 113.649513 64.715943 132.515198 74.130122 146.054145 C 76.306357 145.173199 78.728959 144.639406 81.360599 144.639406 C 87.008359 144.639406 91.8237 146.92016 94.910744 150.395418 C 97.997789 153.870676 99.438658 158.323933 99.438658 162.721198 C 99.438658 167.11473 97.997789 171.567987 94.910744 175.043245 C 91.8237 178.518502 87.008359 180.799257 81.360599 180.799257 C 75.709105 180.799257 70.897497 178.518502 67.810453 175.043245 C 64.719676 171.567987 63.278807 167.11473 63.278807 162.721198 C 63.278807 158.719612 64.540501 154.699362 67.086286 151.384616 C 56.43281 136.296547 49.721195 115.627909 49.721195 92.596394 C 49.721195 46.522166 76.082388 9.040896 108.479554 9.040896 C 138.808737 9.040896 163.833579 41.886001 166.913157 83.876521 Z M 112.992536 73.555267 C 115.082917 75.910678 116.363275 78.721493 117.009053 81.651759 C 134.810884 81.073171 154.557515 86.34765 172.527322 97.128041 C 212.34534 120.995708 231.774681 163.732793 215.846727 192.400869 C 209.777158 203.319375 199.381247 211.016455 185.786308 214.655957 C 180.04896 216.19388 173.901001 216.944177 167.521607 216.944177 C 152.832951 216.944177 136.927394 212.923927 121.899051 205.335099 C 124.78079 203.386566 127.58414 201.370842 130.230711 199.243133 C 148.577533 207.541197 167.801569 210.120578 183.449561 205.924885 C 194.618166 202.938627 203.091673 196.742142 207.948075 188.01107 C 221.539282 163.564816 203.565741 126.266453 167.883691 104.87738 C 151.175578 94.862218 133.000465 90.084205 116.829878 90.77851 C 116.139306 93.462409 114.922406 96.034324 112.992536 98.203094 C 109.901759 101.678352 105.090151 103.959106 99.438658 103.959106 C 93.790898 103.959106 88.975557 101.678352 85.888512 98.203094 C 82.801468 94.727836 81.360599 90.274579 81.360599 85.881047 C 81.360599 81.483782 82.801468 77.030525 85.888512 73.555267 C 88.975557 70.080009 93.790898 67.799255 99.438658 67.799255 C 105.090151 67.799255 109.901759 70.080009 112.992536 73.555267 Z M 92.652387 79.557645 C 91.218983 81.170225 90.401495 83.495773 90.401495 85.881047 C 90.401495 88.26632 91.218983 90.591869 92.652387 92.200715 C 94.082058 93.813295 96.049255 94.91821 99.438658 94.91821 C 102.831794 94.91821 104.798991 93.813295 106.228662 92.200715 C 107.662066 90.591869 108.479554 88.26632 108.479554 85.881047 C 108.479554 83.495773 107.662066 81.170225 106.228662 79.557645 C 104.798991 77.948799 102.831794 76.840151 99.438658 76.840151 C 96.049255 76.840151 94.082058 77.948799 92.652387 79.557645 Z M 42.949855 115.870543 C 17.697311 137.532112 6.5735 167.342432 18.063128 188.01107 C 22.912064 196.742142 31.378106 202.931162 42.550443 205.924885 C 61.453456 210.986592 85.552558 206.320564 107.023753 193.442327 C 125.273522 182.501424 138.681821 167.409623 145.770451 152.004264 C 143.556887 151.003868 141.630751 149.611525 140.130156 147.924289 C 137.039379 144.449032 135.598509 139.995774 135.598509 135.598509 C 135.598509 131.204977 137.039379 126.75172 140.130156 123.276462 C 143.2172 119.801205 148.028808 117.52045 153.680302 117.52045 C 159.331795 117.52045 164.143403 119.801205 167.230447 123.276462 C 170.321224 126.75172 171.758361 131.204977 171.758361 135.598509 C 171.758361 139.995774 170.321224 144.449032 167.230447 147.924289 C 164.326311 151.194242 159.861856 153.333149 154.64337 153.583248 C 147.095603 171.456002 132.268832 188.847222 111.67485 201.191666 C 94.518798 211.479325 75.660579 216.944177 58.485863 216.944177 C 52.110202 216.944177 45.965976 216.182681 40.221162 214.648491 C 26.629955 211.008989 16.230312 203.319375 10.160743 192.400869 C -4.057578 166.816104 9.936773 130.047802 41.411932 105.459701 C 41.785215 108.994684 42.292879 112.473674 42.949855 115.870543 Z M 146.890298 129.278841 C 145.460627 130.89142 144.639406 133.213236 144.639406 135.598509 C 144.639406 137.983783 145.460627 140.309331 146.890298 141.921911 C 148.323701 143.530757 150.290899 144.639406 153.680302 144.639406 C 157.069704 144.639406 159.036902 143.530757 160.470306 141.921911 C 161.899977 140.309331 162.721198 137.983783 162.721198 135.598509 C 162.721198 133.213236 161.899977 130.89142 160.470306 129.278841 C 159.036902 127.669995 157.069704 126.561346 153.680302 126.561346 C 150.290899 126.561346 148.323701 127.669995 146.890298 129.278841 Z M 74.570595 156.397796 C 73.140924 158.010376 72.319703 160.335924 72.319703 162.721198 C 72.319703 165.106471 73.140924 167.43202 74.570595 169.040866 C 76.003998 170.649713 77.971196 171.758361 81.360599 171.758361 C 84.750002 171.758361 86.717199 170.649713 88.150603 169.040866 C 89.580274 167.43202 90.401495 165.106471 90.401495 162.721198 C 90.401495 160.335924 89.580274 158.010376 88.150603 156.397796 C 86.717199 154.78895 84.750002 153.680302 81.360599 153.680302 C 77.971196 153.680302 76.003998 154.78895 74.570595 156.397796 Z M 74.570595 156.397796 " transform="matrix(1.04646,0,0,1.04646,6.75,6.75)"/>
<path style=" stroke:none;fill-rule:nonzero;fill:rgb(100%,100%,100%);fill-opacity:1;" d="M 120.269531 16.210938 C 86.367188 16.210938 58.78125 55.433594 58.78125 103.648438 C 58.78125 127.75 65.804688 149.378906 76.953125 165.167969 C 74.289062 168.636719 72.96875 172.84375 72.96875 177.03125 C 72.96875 181.628906 74.476562 186.289062 77.710938 189.925781 C 80.941406 193.5625 85.976562 195.949219 91.890625 195.949219 C 97.800781 195.949219 102.839844 193.5625 106.070312 189.925781 C 109.300781 186.289062 110.808594 181.628906 110.808594 177.03125 C 110.808594 172.429688 109.300781 167.769531 106.070312 164.132812 C 102.839844 160.496094 97.800781 158.109375 91.890625 158.109375 C 89.136719 158.109375 86.601562 158.667969 84.324219 159.589844 C 74.472656 145.421875 68.238281 125.679688 68.238281 103.648438 C 68.238281 60.648438 91.582031 25.671875 120.269531 25.671875 C 145.902344 25.671875 167.207031 53.621094 171.46875 90.238281 C 174.8125 91.507812 178.128906 92.941406 181.417969 94.523438 C 178.195312 50.582031 152.007812 16.210938 120.269531 16.210938 Z M 110.808594 77.699219 C 104.898438 77.699219 99.859375 80.085938 96.628906 83.722656 C 93.398438 87.359375 91.890625 92.019531 91.890625 96.621094 C 91.890625 101.21875 93.398438 105.878906 96.628906 109.515625 C 99.859375 113.152344 104.898438 115.539062 110.808594 115.539062 C 116.722656 115.539062 121.757812 113.152344 124.992188 109.515625 C 127.011719 107.246094 128.285156 104.554688 129.007812 101.746094 C 145.929688 101.019531 164.949219 106.019531 182.433594 116.5 C 219.773438 138.882812 238.582031 177.914062 224.359375 203.496094 C 219.277344 212.632812 210.410156 219.117188 198.722656 222.242188 C 182.347656 226.632812 162.230469 223.933594 143.03125 215.25 C 140.261719 217.476562 137.328125 219.585938 134.3125 221.625 C 150.039062 229.566406 166.683594 233.773438 182.054688 233.773438 C 188.730469 233.773438 195.164062 232.988281 201.167969 231.378906 C 215.394531 227.570312 226.273438 219.515625 232.625 208.089844 C 249.292969 178.089844 228.960938 133.367188 187.292969 108.390625 C 168.488281 97.109375 147.824219 91.589844 129.195312 92.195312 C 128.519531 89.128906 127.179688 86.1875 124.992188 83.722656 C 121.757812 80.085938 116.722656 77.699219 110.808594 77.699219 Z M 110.808594 87.160156 C 114.359375 87.160156 116.417969 88.320312 117.914062 90.003906 C 119.414062 91.691406 120.269531 94.125 120.269531 96.621094 C 120.269531 99.117188 119.414062 101.550781 117.914062 103.234375 C 116.417969 104.921875 114.359375 106.078125 110.808594 106.078125 C 107.261719 106.078125 105.203125 104.921875 103.707031 103.234375 C 102.207031 101.550781 101.351562 99.117188 101.351562 96.621094 C 101.351562 94.125 102.207031 91.691406 103.707031 90.003906 C 105.203125 88.320312 107.261719 87.160156 110.808594 87.160156 Z M 50.085938 117.109375 C 17.148438 142.839844 2.503906 181.316406 17.382812 208.089844 C 23.734375 219.515625 34.617188 227.5625 48.839844 231.371094 C 54.851562 232.976562 61.28125 233.773438 67.953125 233.773438 C 85.925781 233.773438 105.660156 228.054688 123.613281 217.289062 C 145.164062 204.371094 160.679688 186.171875 168.578125 167.46875 C 174.039062 167.207031 178.710938 164.96875 181.75 161.546875 C 184.984375 157.910156 186.488281 153.25 186.488281 148.648438 C 186.488281 144.050781 184.984375 139.390625 181.75 135.753906 C 178.519531 132.117188 173.484375 129.730469 167.570312 129.730469 C 161.65625 129.730469 156.621094 132.117188 153.390625 135.753906 C 150.15625 139.390625 148.648438 144.050781 148.648438 148.648438 C 148.648438 153.25 150.15625 157.910156 153.390625 161.546875 C 154.960938 163.3125 156.976562 164.769531 159.292969 165.816406 C 151.875 181.9375 137.84375 197.730469 118.746094 209.179688 C 96.277344 222.65625 71.058594 227.539062 51.277344 222.242188 C 39.585938 219.109375 30.726562 212.632812 25.652344 203.496094 C 13.628906 181.867188 25.269531 150.671875 51.695312 128.003906 C 51.007812 124.449219 50.476562 120.808594 50.085938 117.109375 Z M 167.570312 139.191406 C 171.117188 139.191406 173.175781 140.351562 174.675781 142.035156 C 176.171875 143.722656 177.03125 146.152344 177.03125 148.648438 C 177.03125 151.144531 176.171875 153.578125 174.675781 155.265625 C 173.175781 156.949219 171.117188 158.109375 167.570312 158.109375 C 164.023438 158.109375 161.964844 156.949219 160.464844 155.265625 C 158.96875 153.578125 158.109375 151.144531 158.109375 148.648438 C 158.109375 146.152344 158.96875 143.722656 160.464844 142.035156 C 161.964844 140.351562 164.023438 139.191406 167.570312 139.191406 Z M 91.890625 167.570312 C 95.4375 167.570312 97.496094 168.730469 98.996094 170.414062 C 100.492188 172.101562 101.351562 174.535156 101.351562 177.03125 C 101.351562 179.527344 100.492188 181.960938 98.996094 183.644531 C 97.496094 185.328125 95.4375 186.488281 91.890625 186.488281 C 88.34375 186.488281 86.285156 185.328125 84.785156 183.644531 C 83.289062 181.960938 82.429688 179.527344 82.429688 177.03125 C 82.429688 174.535156 83.289062 172.101562 84.785156 170.414062 C 86.285156 168.730469 88.34375 167.570312 91.890625 167.570312 Z M 91.890625 167.570312 "/>
</g>
</svg>
